<?xml version="1.0" encoding="UTF-8"?><svg id="Layer_1" xmlns="http://www.w3.org/2000/svg" viewBox="0 0 595.28 418.14"><defs><style>.cls-1{fill:#757d7d;stroke-width:0px;}</style></defs><path class="cls-1" d="m171.26,316.25h7.54v1.09h-6.38v4.71h5.6v1.09h-5.6v5.53h-1.17v-12.41Z"/><path class="cls-1" d="m181.99,316.24h1.17v12.43h-1.17v-12.43Z"/><path class="cls-1" d="m187.46,316.24h1.17v11.34h6.77v1.09h-7.93v-12.43Z"/><path class="cls-1" d="m199.36,318.15v10.51h-1.17v-12.43h1.34l4.94,7.95,4.93-7.95h1.18v12.43h-1.16v-10.51l-5.02,7.99-5.04-7.99Z"/><path class="cls-1" d="m227.38,325.14h-6.36l-1.47,3.53h-1.2l5.23-12.43h1.36l5.21,12.43h-1.3l-1.48-3.53Zm-3.18-7.66l-2.75,6.61h5.51l-2.75-6.61Z"/><path class="cls-1" d="m234.04,318.06v10.61h-1.14v-12.43h1.26l7.83,10.63v-10.63h1.16v12.43h-1.28l-7.83-10.61Z"/><path class="cls-1" d="m247.4,316.25h3.51c4.19,0,7,2.5,7,6.2s-2.74,6.2-6.73,6.2h-3.78v-12.41Zm1.18,1.09v10.24h2.42c3.43,0,5.68-2.03,5.68-5.12s-2.25-5.12-5.7-5.12h-2.4Z"/><path class="cls-1" d="m266.42,316.24h4.31c2.71,0,4.54,1.49,4.54,3.78s-1.82,3.78-4.62,3.78h-3.06v4.87h-1.17v-12.43Zm1.17,1.05v5.47h3.24c1.94,0,3.24-1.11,3.24-2.74s-1.3-2.73-3.24-2.73h-3.24Z"/><path class="cls-1" d="m287.6,322.96h-7.79v5.7h-1.17v-12.43h1.17v5.64h7.79v-5.64h1.16v12.43h-1.16v-5.7Z"/><path class="cls-1" d="m304.95,322.48c0,3.53-2.81,6.4-6.3,6.4s-6.28-2.87-6.28-6.4,2.81-6.46,6.28-6.46,6.3,2.89,6.3,6.46Zm-1.2,0c0-2.95-2.29-5.33-5.1-5.33s-5.08,2.38-5.08,5.33,2.29,5.27,5.08,5.27,5.1-2.37,5.1-5.27Z"/><path class="cls-1" d="m311.62,317.32v11.34h-1.16v-11.34h-4.15v-1.08h9.48v1.08h-4.17Z"/><path class="cls-1" d="m329.71,322.48c0,3.53-2.81,6.4-6.3,6.4s-6.28-2.87-6.28-6.4,2.81-6.46,6.28-6.46,6.3,2.89,6.3,6.46Zm-1.2,0c0-2.95-2.29-5.33-5.1-5.33s-5.08,2.38-5.08,5.33,2.29,5.27,5.08,5.27,5.1-2.37,5.1-5.27Z"/><path class="cls-1" d="m338.92,328.88c-3.57,0-6.34-2.87-6.34-6.4s2.81-6.46,6.28-6.46c1.86,0,3.18.48,4.31,1.44l-.76.91c-.95-.74-2.02-1.22-3.55-1.22-2.81,0-5.08,2.38-5.08,5.33s2.27,5.27,5.24,5.27c1.12,0,2.17-.25,3.02-.68v-4.48h1.16v5.22c-1.18.76-2.56,1.07-4.28,1.07Z"/><path class="cls-1" d="m347.02,316.24h4.31c2.54,0,4.23,1.41,4.23,3.59,0,1.82-1.22,3.12-3.18,3.49l3.36,5.35h-1.34l-3.26-5.26h-2.95v5.26h-1.17v-12.43Zm1.17,1.05v5.08h3.24c1.76,0,2.93-1.03,2.93-2.54s-1.16-2.54-2.93-2.54h-3.24Z"/><path class="cls-1" d="m366.85,325.14h-6.36l-1.48,3.53h-1.2l5.24-12.43h1.36l5.21,12.43h-1.3l-1.47-3.53Zm-3.18-7.66l-2.75,6.61h5.51l-2.75-6.61Z"/><path class="cls-1" d="m372.42,316.24h4.31c2.71,0,4.54,1.49,4.54,3.78s-1.82,3.78-4.62,3.78h-3.06v4.87h-1.17v-12.43Zm1.17,1.05v5.47h3.24c1.94,0,3.24-1.11,3.24-2.74s-1.3-2.73-3.24-2.73h-3.24Z"/><path class="cls-1" d="m393.61,322.96h-7.79v5.7h-1.17v-12.43h1.17v5.64h7.79v-5.64h1.16v12.43h-1.16v-5.7Z"/><path class="cls-1" d="m402.12,324.42l-4.68-8.18h1.32l3.95,6.96,3.98-6.96h1.26l-4.67,8.18v4.25h-1.16v-4.25Z"/><path class="cls-1" d="m256.31,92.79c-1.06-1.13-2.53-2.05-4.39-2.74-1.86-.7-8.73-2.18-16.61,2.55-4.11,2.3-8.07,5.55-12.02,9.48-3.96,3.93-7.9,8.43-11.82,13.52-3.93,5.09-7.85,10.33-11.77,15.71-3.93,5.39-7.82,10.72-11.67,16.01-3.86,5.29-7.72,10.13-11.57,14.52-3.86,4.39-7.73,8.12-11.62,11.17-3.89,3.06-7.77,5.02-11.62,5.89,2.93-3.46,5.64-7.85,8.13-13.17,2.5-5.32,4.74-10.99,6.74-17.01,2-6.02,3.66-12.07,4.99-18.16s2.23-11.62,2.69-16.61c1.13-1.93,2.14-3.91,3.04-5.94.9-2.03,1.25-3.71,1.05-5.04-.07-.53-.25-1-.55-1.4-.3-.4-.75-.6-1.35-.6-1.73,0-2.98.68-3.74,2.04-.76,1.36-1.31,3.11-1.65,5.24-.2,3.46-.7,7.25-1.5,11.37-1.53,4.06-3.51,8.25-5.94,12.57-2.43,4.33-5.12,8.57-8.08,12.72-2.96,4.16-6.1,8.15-9.43,11.97-3.33,3.82-6.7,7.25-10.13,10.28-3.43,3.03-6.8,5.57-10.13,7.63-3.33,2.06-6.45,3.42-9.38,4.09,1.53-1.8,3.18-4.04,4.94-6.73,1.76-2.69,3.51-5.65,5.24-8.88,1.73-3.23,3.38-6.67,4.94-10.33,1.56-3.66,2.96-7.38,4.19-11.17,1.23-3.79,2.21-7.55,2.94-11.28.73-3.72,1.1-7.28,1.1-10.68,0-4.39-.65-8.2-1.95-11.42-1.3-3.23-3.01-5.89-5.14-7.98-2.13-2.09-4.57-3.66-7.33-4.69-2.76-1.03-5.61-1.55-8.53-1.55-5.39,0-10.19,1.18-14.42,3.54-4.23,2.36-7.78,5.35-10.68,8.98-2.89,3.63-5.11,7.63-6.64,12.02-1.53,4.39-2.29,8.62-2.29,12.67,0,2.59.32,5.06.95,7.38.63,2.33,1.61,4.36,2.94,6.09,1.33,1.73,3.01,3.09,5.04,4.09,2.03,1,4.44,1.5,7.23,1.5s5.56-.68,8.08-2.39c2.73-1.85,3.74-5.22,3.74-5.22,0,0-2.35,2.82-4.09,4.03-2.29,1.6-4.87,2.39-7.73,2.39-2.39,0-4.46-.4-6.19-1.2-1.73-.8-3.16-1.91-4.29-3.34-1.13-1.43-1.96-3.09-2.49-4.99-.53-1.9-.8-3.94-.8-6.14,0-3.92.8-8.08,2.39-12.47,1.6-4.39,3.88-8.45,6.84-12.17,2.96-3.73,6.49-6.82,10.58-9.28,4.09-2.46,8.63-3.69,13.62-3.69,2.33,0,4.52.4,6.58,1.2,2.06.8,3.86,2.04,5.39,3.74,1.53,1.7,2.74,3.86,3.64,6.49.9,2.63,1.35,5.77,1.35,9.43s-.42,7.87-1.25,12.22c-.83,4.36-1.91,8.7-3.24,13.02-1.33,4.32-2.79,8.53-4.39,12.62-1.6,4.09-3.19,7.8-4.79,11.12-1.6,3.33-3.08,6.17-4.44,8.53-1.36,2.36-2.44,3.97-3.24,4.84-.47,0-1.12.03-1.95.1-.83.07-1.66.18-2.49.35-.83.17-1.55.41-2.14.75-.6.33-.9.76-.9,1.3s.3.96.9,1.3c.6.33,1.46.5,2.59.5,1.33,0,2.96-1.06,4.89-3.19,3.19-.53,6.5-1.73,9.93-3.59,3.43-1.86,6.83-4.21,10.23-7.03,3.39-2.83,6.72-6.04,9.98-9.63,3.26-3.59,6.32-7.38,9.18-11.37,2.86-3.99,5.5-8.06,7.93-12.22,2.43-4.16,4.47-8.23,6.14-12.22-.8,3.79-1.76,7.7-2.89,11.72-1.13,4.03-2.29,7.97-3.49,11.82-1.2,3.86-2.43,7.55-3.69,11.08-1.26,3.52-2.46,6.68-3.59,9.48-1.13,2.79-2.16,5.14-3.09,7.03-.93,1.9-1.7,3.18-2.29,3.84-.47,0-1.12.03-1.95.1-.83.07-1.66.18-2.5.35-.83.17-1.55.41-2.14.75-.6.33-.9.76-.9,1.3s.3.96.9,1.3c.6.33,1.46.5,2.59.5,1.4,0,3.03-1.03,4.89-3.09,4.19-.67,8.28-2.46,12.27-5.39,3.99-2.93,7.95-6.54,11.87-10.83,3.92-4.29,7.83-9.04,11.72-14.27,3.89-5.22,7.8-10.53,11.72-15.91,3.92-5.39,7.9-10.63,11.92-15.71,4.02-5.09,8.13-9.59,12.32-13.52,4.19-3.92,6.96-6.42,11.36-8.8,9.96-5.39,17.11-3.95,18.47-3.32,1.36.63,2.35,1.43,2.94,2.4,1.18,1.94.93,5.2.8,6.14,0,0,2.07-5.21-1-8.38Zm-80.37,17.76l.1-.5v-.2c.13-2.53.3-4.44.5-5.74.2-1.3.73-1.95,1.6-1.95.26,0,.41.1.45.3.03.2.05.37.05.5.13.93-.08,2.08-.65,3.44-.57,1.36-1.25,2.81-2.05,4.34v-.2Z"/><path class="cls-1" d="m230.32,176v-.2c1.33,0,2.78-.65,4.34-1.95,1.56-1.3,2.61-2.88,3.14-4.74l3.39-13.37h-28.14l-11.47,12.97c-1.33,1.6-2,3.06-2,4.39,0,1.8.83,2.69,2.5,2.69v.2h-13.27v-.2c.66,0,1.48-.21,2.44-.65.96-.43,1.98-.98,3.04-1.65,1.06-.66,2.11-1.43,3.14-2.29,1.03-.86,1.88-1.7,2.54-2.49l55.47-62.56h2.39l-15.86,62.96c-.2.73-.28,1.5-.25,2.29.03.8.18,1.51.45,2.14.26.63.63,1.17,1.1,1.6.47.43,1.03.65,1.7.65v.2h-14.67Zm-16.26-21.45l27.44.1,11.17-43.8-38.61,43.7Z"/><path class="cls-1" d="m291.08,106.16v.2c1.13,0,1.7.73,1.7,2.19,0,.73-.13,1.51-.4,2.35-.27.83-.6,1.61-1,2.35l-32.43,56.17c-.4.67-.93,1.38-1.6,2.14-.67.77-1.38,1.47-2.14,2.1-.77.63-1.51,1.15-2.25,1.55-.73.4-1.4.6-2,.6v.2h38.91l6.78-8.36c-.38-.19-.2-.11-.74-.33-.33.27-.34.22-.71.51-1.43,1.13-3.01,2.21-4.74,3.24-1.73,1.03-3.49,1.91-5.29,2.64-1.8.73-3.46,1.1-4.99,1.1h-19.95l36.02-62.16c.4-.66.93-1.36,1.6-2.1.66-.73,1.35-1.41,2.05-2.04.7-.63,1.41-1.15,2.14-1.55.73-.4,1.4-.6,2-.6v-.2h-12.97Z"/><path class="cls-1" d="m366.91,113.04c.86-.66,1.5-1.38,1.9-2.14.4-.76.6-1.51.6-2.24,0-.66-.17-1.21-.5-1.65-.33-.43-.8-.65-1.4-.65v-.2h13.87v.2c-.6,0-1.46.23-2.59.7-1.13.47-2.33,1.05-3.59,1.75-1.26.7-2.51,1.45-3.74,2.24-1.23.8-2.24,1.5-3.04,2.1l-33.52,25.44c2-.8,4.12-1.2,6.39-1.2,1.4,0,2.74.18,4.04.55,1.3.37,2.44.95,3.44,1.75s1.8,1.81,2.39,3.04c.6,1.23.9,2.71.9,4.44,0,1.93-.25,4.01-.75,6.24-.5,2.23-1.05,4.44-1.65,6.64-.6,2.19-1.15,4.29-1.65,6.28-.5,2-.75,3.73-.75,5.19,0,1.33.27,2.38.8,3.14.53.76,1.5,1.15,2.89,1.15l-.1.2h-3.79c-1.93,0-3.24-.46-3.94-1.4s-1.05-2.16-1.05-3.69.3-3.44.9-5.54,1.25-4.27,1.95-6.53c.7-2.26,1.33-4.51,1.9-6.74.56-2.23.85-4.24.85-6.04,0-2.73-.83-4.66-2.49-5.79-1.66-1.13-3.56-1.7-5.69-1.7-1.4,0-2.78.2-4.14.6-1.36.4-2.48.96-3.34,1.7l-4.69,3.49-14.37,24.84.1-.1c-.33.67-.62,1.38-.85,2.14-.23.77-.35,1.51-.35,2.25,0,.67.13,1.21.4,1.65.26.43.7.65,1.3.65v.2h-13.07v-.2c.6,0,1.28-.18,2.05-.55.76-.37,1.51-.86,2.24-1.5.73-.63,1.45-1.36,2.14-2.2.7-.83,1.28-1.68,1.75-2.54l32.53-56.37c.66-1.46,1-2.79,1-3.99,0-.66-.12-1.21-.35-1.65-.23-.43-.65-.65-1.25-.65v-.2h12.97v.2c-.6,0-1.26.2-2,.6-.73.4-1.45.92-2.14,1.55-.7.63-1.38,1.31-2.05,2.04-.67.73-1.2,1.43-1.6,2.1l-17.16,29.53,38.31-29.13Z"/><path class="cls-1" d="m357.13,176v-.2c.6,0,1.25-.18,1.95-.55.7-.37,1.41-.85,2.14-1.45.73-.6,1.43-1.26,2.09-2,.66-.73,1.2-1.43,1.6-2.1l33.03-57.07c.73-1.46,1.1-2.79,1.1-3.99,0-1.53-.6-2.29-1.8-2.29v-.2h13.07v.2c-.6,0-1.25.18-1.94.55-.7.37-1.41.85-2.15,1.45-.73.6-1.43,1.26-2.09,2-.67.73-1.2,1.43-1.6,2.1l-33.22,57.47c-.53,1.26-.8,2.46-.8,3.59,0,.67.13,1.21.4,1.65.26.43.7.65,1.3.65v.2h-13.07Z"/><path class="cls-1" d="m383.67,176v-.2c.6,0,1.28-.2,2.05-.6.76-.4,1.53-.9,2.29-1.5.76-.6,1.48-1.26,2.14-2,.66-.73,1.23-1.43,1.7-2.1l33.13-57.37c.53-1.2.8-2.33.8-3.39,0-.73-.15-1.33-.45-1.8-.3-.47-.82-.7-1.55-.7l.1-.2h6.09l1.8,62.26,30.73-53.28c.93-1.66,1.4-3.32,1.4-4.99,0-1.06-.2-1.96-.6-2.69-.4-.73-.97-1.1-1.7-1.1v-.2h11.77v.2c-.6,0-1.28.2-2.05.6-.77.4-1.53.9-2.29,1.5-.77.6-1.48,1.26-2.15,2-.67.73-1.23,1.43-1.7,2.09l-36.62,63.46h-1.2l-1.4-63.36-32.33,56.07.4-.6c-.67,1.2-1,2.56-1,4.09,0,.93.18,1.76.55,2.49.36.73.91,1.1,1.65,1.1v.2h-11.57Zm78.92-61.06l-.1.2c-.07.07-.1.12-.1.15,0,.03-.03.09-.1.15l.3-.5Z"/><path class="cls-1" d="m524.6,107.73c-.17.17-.32.36-.5.52-.77.67-1.51,1-2.25,1-.4,0-.76-.2-1.1-.6-.33-.4-.82-.83-1.45-1.3s-1.45-.9-2.44-1.3c-1-.4-2.33-.6-3.99-.6-4.39,0-8.8,1.02-13.22,3.04-4.42,2.03-8.7,4.71-12.82,8.03-4.12,3.33-7.95,7.12-11.47,11.37-3.53,4.26-6.59,8.62-9.18,13.07-2.4,4.19-4.28,8.26-5.64,12.22-1.36,3.96-2.05,7.57-2.05,10.83,0,3.79,1.03,6.84,3.09,9.13,2.06,2.29,5.42,3.44,10.08,3.44,2.53,0,4.79-.38,6.78-1.15,2-.76,3.86-1.81,5.59-3.14.73-.4,1.36-.6,1.9-.6,1.06,0,1.6.63,1.6,1.9,0,.53-.1,1.1-.3,1.7-.08.25-.21.51-.35.76.16.02.31.06.44.11l17.57-30.41c.4-.66.93-1.38,1.6-2.14.66-.76,1.38-1.46,2.14-2.1.76-.63,1.51-1.15,2.25-1.55.21-.11.4-.21.6-.29-.02-.17-.02-.34,0-.51h-11.15c-.02.08-.05.16-.08.24.38.08.67.28.86.6.27.43.4,1.02.4,1.75,0,1.06-.33,2.33-1,3.79l-9.08,15.76c-1.13,1.93-2.31,3.74-3.54,5.44-1.23,1.7-2.61,3.18-4.14,4.44-1.53,1.26-3.21,2.26-5.04,2.99-1.83.73-3.91,1.1-6.24,1.1-3.39,0-5.82-.91-7.28-2.74-1.46-1.83-2.19-4.24-2.19-7.23,0-3.19.71-6.85,2.14-10.98,1.43-4.12,3.38-8.36,5.84-12.72,2.46-4.36,5.34-8.63,8.63-12.82,3.29-4.19,6.75-7.91,10.38-11.17,3.62-3.26,7.33-5.9,11.12-7.93,3.79-2.03,7.45-3.04,10.98-3.04,2,0,3.66.53,4.99,1.6,1.33,1.06,2,2.73,2,4.99,0,1.13-.22,2.46-.65,3.99-.22.8-.53,1.65-.91,2.55.2.08.38.19.53.33l7.05-11.94c-.21-.08-.33-.29-.48-.43Z"/><path class="cls-1" d="m102.62,209.98v.2c-1.33,0-2.76.65-4.29,1.94-1.53,1.3-2.59,2.88-3.19,4.74l-18.36,55.47,45.6-55.18.1-.3c.2-.73.3-1.46.3-2.2,0-1.2-.28-2.24-.85-3.14-.57-.9-1.35-1.35-2.35-1.35v-.2h14.67l.6.2c-1.13,0-2.66.6-4.59,1.8-.73.6-1.41,1.31-2.05,2.14-.63.83-1.11,1.75-1.45,2.74l-18.16,55.27,45.5-55.07c.73-.8,1.25-1.58,1.55-2.35.3-.76.45-1.45.45-2.05,0-.73-.22-1.33-.65-1.8s-1.01-.7-1.75-.7v-.2h12.87v.2c-.67,0-1.5.22-2.49.65-1,.43-2.01.98-3.04,1.65-1.03.66-2.05,1.4-3.04,2.19-1,.8-1.79,1.6-2.39,2.4l-52.38,63.25h-1.4l.2-.2,19.46-60.16-49.99,60.36h-1.3l20.55-63.46c.2-.73.3-1.46.3-2.2,0-1.2-.28-2.24-.85-3.14-.57-.9-1.35-1.35-2.35-1.35v-.2h14.77Z"/><path class="cls-1" d="m215.46,209.98h-36.62v.2c.66,0,1.13.22,1.4.65.26.43.4.98.4,1.65,0,1-.27,2.09-.8,3.29l-33.12,57.47c-.4.67-.93,1.38-1.6,2.14-.67.77-1.38,1.47-2.14,2.1-.77.63-1.51,1.15-2.25,1.55-.73.4-1.4.6-2,.6v.2h38.01l7.91-9.05c-.15-.08-.28-.17-.4-.28-.51.41-1.05.84-1.67,1.3-1.56,1.17-3.26,2.25-5.09,3.24-1.83,1-3.68,1.85-5.54,2.54-1.86.7-3.56,1.05-5.09,1.05h-18.86l19.16-33.12h11.77c3.33,0,4.99,1.13,4.99,3.39,0,.54-.14,1.2-.42,1.96.13.06.25.14.36.23l7.09-12.18c-.15-.04-.28-.09-.41-.15-1.12,1.37-2.37,2.54-3.78,3.45-2.16,1.4-4.54,2.1-7.13,2.1h-11.77l19.16-33.12h20.45c1.66,0,2.76.47,3.29,1.4.53.93.8,1.96.8,3.09,0,.89-.1,1.76-.27,2.61.23.06.44.15.61.28l3.54-8.47h-.1l.1-.1Z"/><path class="cls-1" d="m190.72,279.82v-.2c.6,0,1.26-.2,2-.6.73-.4,1.48-.91,2.25-1.55.76-.63,1.48-1.33,2.14-2.1.66-.76,1.2-1.48,1.6-2.14l33.13-57.47c.53-1.2.8-2.29.8-3.29,0-.66-.13-1.21-.4-1.65-.27-.43-.73-.65-1.4-.65v-.2h17.46c5.12,0,8.8,1.23,11.02,3.69,2.23,2.46,3.34,5.65,3.34,9.58,0,3.39-.73,7.13-2.2,11.22-1.46,4.09-3.49,8.23-6.09,12.42-2.59,4.19-5.64,8.27-9.13,12.22-3.49,3.96-7.27,7.47-11.32,10.53-4.06,3.06-8.3,5.52-12.72,7.38-4.42,1.86-8.83,2.79-13.22,2.79h-17.26Zm9.28-1.2h8.78c3.73,0,7.53-.95,11.42-2.84,3.89-1.9,7.67-4.42,11.33-7.58,3.66-3.16,7.12-6.74,10.38-10.73,3.26-3.99,6.1-8.08,8.53-12.27,2.43-4.19,4.36-8.3,5.79-12.32,1.43-4.02,2.14-7.63,2.14-10.83s-.85-5.89-2.54-7.88c-1.7-2-4.44-2.99-8.23-2.99h-8.58l-39.01,67.45Z"/><path class="cls-1" d="m246.09,279.82v-.2c.6,0,1.26-.2,2-.6.73-.4,1.48-.91,2.25-1.55.76-.63,1.48-1.33,2.14-2.1.66-.76,1.2-1.48,1.6-2.14l33.13-57.47c.53-1.2.8-2.29.8-3.29,0-.66-.13-1.21-.4-1.65-.27-.43-.73-.65-1.4-.65v-.2h17.46c5.12,0,8.8,1.23,11.02,3.69,2.23,2.46,3.34,5.65,3.34,9.58,0,3.39-.73,7.13-2.2,11.22-1.46,4.09-3.49,8.23-6.09,12.42-2.59,4.19-5.64,8.27-9.13,12.22-3.49,3.96-7.27,7.47-11.32,10.53-4.06,3.06-8.3,5.52-12.72,7.38-4.42,1.86-8.83,2.79-13.22,2.79h-17.26Zm9.28-1.2h8.78c3.73,0,7.53-.95,11.42-2.84,3.89-1.9,7.67-4.42,11.33-7.58,3.66-3.16,7.12-6.74,10.38-10.73,3.26-3.99,6.1-8.08,8.53-12.27,2.43-4.19,4.36-8.3,5.79-12.32,1.43-4.02,2.14-7.63,2.14-10.83s-.85-5.89-2.54-7.88c-1.7-2-4.44-2.99-8.23-2.99h-8.58l-39.01,67.45Z"/><path class="cls-1" d="m301.47,279.82v-.2c.6,0,1.25-.18,1.95-.55.7-.37,1.41-.85,2.14-1.45.73-.6,1.43-1.26,2.09-2,.66-.73,1.2-1.43,1.6-2.1l33.03-57.07c.73-1.46,1.1-2.79,1.1-3.99,0-1.53-.6-2.29-1.8-2.29v-.2h13.07v.2c-.6,0-1.25.18-1.94.55-.7.37-1.41.85-2.15,1.45-.73.6-1.43,1.26-2.09,2-.67.73-1.2,1.43-1.6,2.1l-33.22,57.47c-.53,1.26-.8,2.46-.8,3.59,0,.67.13,1.21.4,1.65.26.43.7.65,1.3.65v.2h-13.07Z"/><path class="cls-1" d="m328.01,279.82v-.2c.6,0,1.28-.2,2.05-.6.76-.4,1.53-.9,2.29-1.5.76-.6,1.48-1.26,2.14-2,.66-.73,1.23-1.43,1.7-2.1l33.13-57.37c.53-1.2.8-2.33.8-3.39,0-.73-.15-1.33-.45-1.8-.3-.47-.82-.7-1.55-.7l.1-.2h6.09l1.8,62.26,30.73-53.28c.93-1.66,1.4-3.32,1.4-4.99,0-1.06-.2-1.96-.6-2.69-.4-.73-.97-1.1-1.7-1.1v-.2h11.77v.2c-.6,0-1.28.2-2.05.6-.77.4-1.53.9-2.29,1.5-.77.6-1.48,1.26-2.15,2-.67.73-1.23,1.43-1.7,2.09l-36.62,63.46h-1.2l-1.4-63.36-32.33,56.07.4-.6c-.67,1.2-1,2.56-1,4.09,0,.93.18,1.76.55,2.49.36.73.91,1.1,1.65,1.1v.2h-11.57Zm78.92-61.06l-.1.2c-.07.07-.1.12-.1.15,0,.03-.03.09-.1.15l.3-.5Z"/><path class="cls-1" d="m444.15,243.2c.6,0,1.03.22,1.3.65.27.43.4,1.02.4,1.75,0,1.06-.33,2.33-1,3.79l-9.08,15.76c-1.13,1.93-2.31,3.74-3.54,5.44-1.23,1.7-2.61,3.18-4.14,4.44-1.53,1.26-3.21,2.26-5.04,2.99-1.83.73-3.91,1.1-6.24,1.1-3.39,0-5.82-.91-7.28-2.74-1.46-1.83-2.19-4.24-2.19-7.23,0-3.19.71-6.85,2.14-10.98,1.43-4.12,3.38-8.36,5.84-12.72,2.46-4.36,5.34-8.63,8.63-12.82s6.75-7.91,10.38-11.17c3.62-3.26,7.33-5.9,11.12-7.93,3.79-2.03,7.45-3.04,10.98-3.04,2,0,3.66.53,4.99,1.6,1.33,1.06,2,2.73,2,4.99,0,1.13-.22,2.46-.65,3.99-.17.61-.4,1.26-.67,1.94.26.05.49.14.68.27l7.69-13.03c-.15,0-.29-.02-.42-.05-.47.71-.99,1.36-1.6,1.89-.77.67-1.51,1-2.25,1-.4,0-.76-.2-1.1-.6-.33-.4-.82-.83-1.45-1.3s-1.45-.9-2.44-1.3c-1-.4-2.33-.6-3.99-.6-4.39,0-8.8,1.02-13.22,3.04-4.42,2.03-8.7,4.71-12.82,8.03-4.12,3.33-7.95,7.12-11.47,11.37-3.53,4.26-6.59,8.62-9.18,13.07-2.4,4.19-4.28,8.26-5.64,12.22-1.36,3.96-2.05,7.57-2.05,10.83,0,3.79,1.03,6.84,3.09,9.13,2.06,2.29,5.42,3.44,10.08,3.44,2.53,0,4.79-.38,6.78-1.15,2-.76,3.86-1.81,5.59-3.14.73-.4,1.36-.6,1.9-.6,1.06,0,1.6.63,1.6,1.9,0,.53-.1,1.1-.3,1.7-.03.08-.08.16-.11.24.14.09.27.2.38.32l17.39-30.1c.4-.66.93-1.38,1.6-2.14.66-.76,1.38-1.46,2.14-2.1.76-.63,1.51-1.15,2.25-1.55.73-.4,1.4-.6,2-.6v-.2h-13.07v.2Z"/><path class="cls-1" d="m521.16,212.5c-.71.6-1.51,1.17-2.25,1.17-.53,0-1.03-.23-1.5-.7-.47-.47-1.05-.98-1.75-1.55-.7-.56-1.65-1.08-2.84-1.55-1.2-.47-2.79-.7-4.79-.7-2.46,0-5.16.55-8.08,1.65-2.93,1.1-5.64,2.59-8.13,4.49-2.5,1.9-4.57,4.09-6.24,6.58-1.66,2.5-2.5,5.14-2.5,7.93,0,2.39.63,4.61,1.9,6.64,1.26,2.03,2.68,4.06,4.24,6.09,1.56,2.03,2.98,4.12,4.24,6.29,1.26,2.16,1.9,4.54,1.9,7.13,0,3.19-.88,6.22-2.64,9.08-1.76,2.86-3.99,5.36-6.69,7.48-2.69,2.13-5.65,3.81-8.88,5.04-3.23,1.23-6.3,1.85-9.23,1.85s-5.11-.63-6.93-1.9c-1.83-1.26-2.74-3.29-2.74-6.09,0-1.2.22-2.56.65-4.09.22-.76.49-1.57.84-2.42-.22-.05-.42-.14-.59-.25l-7.56,13.06c.22.05.42.14.59.26.13-.14.25-.3.39-.43.73-.7,1.5-1.05,2.29-1.05.6,0,1.18.22,1.75.65.56.43,1.26.91,2.1,1.45.83.53,1.9,1.02,3.19,1.45,1.3.43,2.94.65,4.94.65,2.73,0,5.55-.39,8.48-1.15,2.93-.76,5.77-1.91,8.53-3.44,2.76-1.53,5.35-3.41,7.78-5.64,2.43-2.23,4.47-4.84,6.14-7.83.93-1.66,1.61-3.23,2.05-4.69.43-1.46.65-2.86.65-4.19,0-2.66-.67-5.09-2-7.28-1.33-2.19-2.79-4.31-4.39-6.34-1.6-2.03-3.06-4.09-4.39-6.19-1.33-2.1-2-4.37-2-6.84s.6-4.7,1.8-6.73c1.2-2.03,2.74-3.77,4.64-5.24,1.9-1.46,4.02-2.59,6.38-3.39,2.36-.8,4.67-1.2,6.93-1.2,2.53,0,4.62.63,6.29,1.9,1.66,1.26,2.49,3.16,2.49,5.69,0,1.6-.4,3.4-1.17,5.39.25.06.47.17.66.31l6.08-10.8c-.26-.14-.47-.33-.62-.57Z"/></svg>